<svg width="303" height="36" viewBox="0 0 303 36" fill="none" xmlns="http://www.w3.org/2000/svg">
<path d="M16.0329 10.4657C16.9837 11.1324 17.8236 11.9447 18.5218 12.8727V0.472656H22.4878V34.2647H18.7739V30.8487C17.9559 32.2271 16.7813 33.3596 15.3739 34.1267C13.9767 34.8197 12.4332 35.1658 10.8739 35.1357C9.51089 35.1275 8.16708 34.8132 6.94182 34.2161C5.71656 33.6189 4.6411 32.7542 3.79485 31.6857C1.80018 29.385 0.802846 26.3243 0.802846 22.5037C0.721954 19.1951 1.67601 15.9439 3.53185 13.2037C4.38593 11.9347 5.55192 10.9065 6.91784 10.218C8.28375 9.5294 9.8037 9.20354 11.3318 9.27167C12.9805 9.21455 14.6113 9.62874 16.0329 10.4657ZM6.82085 28.8747C7.38906 29.7572 8.1851 30.4699 9.12487 30.9374C10.0646 31.4049 11.1132 31.6099 12.1598 31.5307C13.0835 31.5373 13.9946 31.3159 14.8122 30.8861C15.6298 30.4563 16.3287 29.8313 16.8469 29.0667C18.0709 27.424 18.6828 25.0663 18.6828 21.9937C18.6828 18.891 18.0518 16.5947 16.7898 15.1047C16.2325 14.4002 15.5214 13.8324 14.7109 13.4449C13.9005 13.0573 13.0122 12.8603 12.1139 12.8687C11.1472 12.8435 10.1881 13.0462 9.31432 13.4603C8.4405 13.8745 7.67641 14.4885 7.08385 15.2527C5.79918 16.842 5.15685 19.1803 5.15685 22.2677C5.07456 24.5833 5.65202 26.8746 6.82189 28.8747H6.82085Z" fill="#212121"/>
<path d="M28.6559 0.58374H32.8559V5.26074H28.6559V0.58374ZM28.6559 9.82272H32.8559V34.2607H28.6559V9.82272Z" fill="#212121"/>
<path d="M39.0849 9.70971H43.1659V13.1947C43.9277 12.1982 44.8228 11.3109 45.8259 10.5577C47.1881 9.62427 48.8057 9.13524 50.4569 9.15771C52.1514 9.07505 53.8217 9.58608 55.1799 10.6027C55.9498 11.2799 56.5737 12.1067 57.0139 13.0327C57.8333 11.806 58.9441 10.8017 60.2468 10.1097C61.5411 9.46258 62.972 9.13641 64.4188 9.15872C67.7202 9.15872 69.9669 10.351 71.1589 12.7357C71.8701 14.3669 72.1995 16.1389 72.1218 17.9167V34.2627H67.8349V17.2057C67.8349 15.5704 67.4259 14.4471 66.6079 13.8357C65.739 13.2085 64.687 12.8861 63.6159 12.9187C62.0619 12.8928 60.5597 13.4773 59.4318 14.5467C58.2625 15.6321 57.6779 17.443 57.6779 19.9797V34.2617H53.4779V18.2377C53.5532 16.9928 53.3482 15.7468 52.8779 14.5917C52.5174 14.001 51.9958 13.5254 51.3744 13.2209C50.753 12.9164 50.0576 12.7956 49.3699 12.8727C47.7685 12.8901 46.2392 13.5413 45.1168 14.6837C43.8408 15.891 43.2029 18.0767 43.2029 21.2407V34.2627H39.0849V9.70971Z" fill="#212121"/>
<path d="M93.3639 10.3856C94.8622 11.0945 96.144 12.1906 97.0769 13.5606C97.9255 14.8719 98.485 16.3491 98.7179 17.8936C99.0111 19.6816 99.1333 21.4935 99.0829 23.3046H81.2239C81.1897 25.4389 81.8003 27.5339 82.9759 29.3156C83.5667 30.0847 84.3398 30.6944 85.2253 31.0899C86.1108 31.4853 87.0809 31.654 88.0479 31.5806C89.0059 31.6221 89.9614 31.4518 90.846 31.0817C91.7307 30.7116 92.5228 30.1509 93.1659 29.4396C93.8814 28.6062 94.3996 27.6221 94.6819 26.5606H98.7399C98.5772 27.6234 98.2156 28.6459 97.6739 29.5746C97.147 30.5804 96.4653 31.4973 95.6539 32.2916C94.3761 33.5328 92.7758 34.3906 91.0349 34.7676C89.9388 35.0245 88.8156 35.1477 87.6899 35.1346C86.2397 35.1569 84.8012 34.871 83.4697 34.2959C82.1382 33.7208 80.9439 32.8696 79.9659 31.7986C77.8546 29.5746 76.7989 26.4606 76.7989 22.4566C76.6433 18.9711 77.7791 15.5506 79.9889 12.8506C81.0119 11.648 82.293 10.6916 83.7368 10.0525C85.1806 9.4135 86.7499 9.10828 88.3279 9.1596C90.0799 9.16448 91.8057 9.58465 93.3639 10.3856ZM94.8419 20.0256C94.7577 18.5315 94.3626 17.0714 93.6819 15.7386C93.1254 14.7603 92.302 13.9606 91.3079 13.4329C90.3138 12.9053 89.19 12.6714 88.0679 12.7586C87.1786 12.7414 86.296 12.9158 85.48 13.2698C84.664 13.6239 83.9338 14.1494 83.3389 14.8106C82.0418 16.2387 81.3209 18.0974 81.3159 20.0266L94.8419 20.0256Z" fill="#212121"/>
<path d="M104.31 9.70962H108.23V13.1946C109.216 11.9029 110.477 10.8459 111.921 10.0996C113.275 9.46078 114.757 9.13928 116.254 9.1596C119.739 9.1596 122.092 10.375 123.315 12.8056C124.079 14.6075 124.424 16.5591 124.324 18.5136V34.2636H120.124V18.7876C120.174 17.5456 119.946 16.308 119.459 15.1646C119.107 14.4213 118.536 13.8034 117.823 13.3937C117.11 12.984 116.289 12.8022 115.47 12.8726C114.657 12.8516 113.846 12.9527 113.063 13.1726C111.892 13.5355 110.855 14.2374 110.083 15.1896C109.444 15.9085 108.984 16.7687 108.742 17.6996C108.503 18.9179 108.4 20.1587 108.433 21.3996V34.2606H104.306L104.31 9.70962Z" fill="#212121"/>
<path d="M143.912 10.4657C144.863 11.1323 145.703 11.9446 146.402 12.8727V0.472656H150.368V34.2647H146.654V30.8487C145.836 32.2272 144.661 33.3597 143.254 34.1267C141.857 34.8199 140.313 35.166 138.754 35.1357C137.391 35.1276 136.047 34.8134 134.821 34.2163C133.596 33.6191 132.52 32.7543 131.674 31.6857C129.68 29.385 128.683 26.3243 128.683 22.5037C128.602 19.1951 129.556 15.9439 131.412 13.2037C132.266 11.9347 133.432 10.9066 134.798 10.2181C136.164 9.52953 137.684 9.20364 139.212 9.27167C140.86 9.21479 142.491 9.62898 143.912 10.4657ZM134.701 28.8747C135.269 29.7571 136.065 30.4697 137.004 30.9373C137.944 31.4048 138.992 31.6098 140.039 31.5307C140.963 31.5375 141.874 31.3162 142.691 30.8864C143.509 30.4565 144.208 29.8315 144.726 29.0667C145.95 27.424 146.562 25.0663 146.562 21.9937C146.562 18.891 145.931 16.5947 144.669 15.1047C144.111 14.4002 143.4 13.8325 142.59 13.445C141.779 13.0574 140.891 12.8603 139.993 12.8687C139.026 12.8435 138.067 13.0462 137.193 13.4603C136.32 13.8745 135.555 14.4885 134.963 15.2527C133.678 16.842 133.036 19.1803 133.036 22.2677C132.954 24.5835 133.532 26.875 134.703 28.8747H134.701Z" fill="#212121"/>
<path d="M153.813 25.6257L161.556 25.1407C161.64 26.1719 161.993 27.1629 162.58 28.0147C163.008 28.548 163.558 28.9713 164.183 29.2496C164.808 29.5278 165.49 29.653 166.173 29.6147C167.138 29.6776 168.092 29.3872 168.859 28.7977C169.148 28.5719 169.383 28.2839 169.547 27.955C169.71 27.6262 169.797 27.2648 169.802 26.8977C169.795 26.545 169.71 26.1982 169.555 25.8815C169.399 25.5649 169.176 25.2861 168.902 25.0647C167.638 24.262 166.217 23.7411 164.734 23.5377C161.165 22.7377 158.62 21.671 157.099 20.3377C156.358 19.7173 155.767 18.938 155.369 18.0577C154.97 17.1774 154.776 16.2186 154.799 15.2527C154.803 13.8858 155.212 12.5508 155.975 11.4167C156.848 10.1411 158.079 9.15303 159.514 8.57769C161.582 7.80408 163.785 7.45284 165.991 7.5447C169.356 7.5447 171.923 8.17035 173.691 9.42169C174.615 10.1319 175.376 11.0333 175.92 12.0643C176.464 13.0953 176.779 14.2317 176.844 15.3957L169.173 15.8447C169.07 14.8556 168.614 13.9369 167.888 13.2577C167.111 12.6796 166.155 12.3932 165.188 12.4487C164.427 12.3925 163.67 12.6048 163.05 13.0487C162.826 13.2212 162.644 13.443 162.52 13.6969C162.395 13.9508 162.33 14.2299 162.331 14.5127C162.338 14.7338 162.395 14.9505 162.498 15.1464C162.601 15.3422 162.747 15.5123 162.925 15.6437C163.753 16.1638 164.685 16.4953 165.655 16.6147C168.285 17.0883 170.851 17.8689 173.299 18.9407C174.671 19.5779 175.836 20.5898 176.659 21.8597C177.364 23.0371 177.728 24.3874 177.71 25.7597C177.718 27.4213 177.231 29.0477 176.31 30.4307C175.353 31.8745 173.991 33.0029 172.394 33.6737C170.377 34.4707 168.219 34.8451 166.052 34.7737C161.573 34.7737 158.471 33.9114 156.746 32.1867C155.005 30.428 153.962 28.0961 153.813 25.6257Z" fill="black"/>
<path d="M199.338 23.5597L206.47 25.7157C206.077 27.5272 205.305 29.2352 204.206 30.7277C203.204 32.047 201.884 33.0914 200.37 33.7637C198.519 34.5067 196.534 34.8555 194.541 34.7877C192.14 34.8744 189.749 34.4493 187.525 33.5407C185.56 32.5724 183.925 31.0456 182.825 29.1517C181.417 26.7117 180.732 23.9222 180.848 21.1077C180.848 16.7511 182.007 13.4031 184.324 11.0637C186.641 8.72442 189.92 7.55441 194.16 7.55374C196.913 7.40094 199.646 8.10374 201.984 9.56573C204.026 11.1129 205.511 13.2817 206.215 15.7457L199.029 17.3457C198.859 16.7212 198.592 16.1273 198.238 15.5857C197.803 14.9807 197.23 14.488 196.567 14.1487C195.881 13.8083 195.124 13.6368 194.358 13.6487C193.518 13.6141 192.683 13.8016 191.939 14.1925C191.195 14.5833 190.566 15.1636 190.118 15.8747C189.259 17.4612 188.872 19.2605 189.004 21.0597C189.004 23.9784 189.447 25.9784 190.334 27.0597C190.788 27.6017 191.362 28.0306 192.01 28.3124C192.659 28.5943 193.364 28.7214 194.07 28.6837C194.718 28.7308 195.369 28.6381 195.978 28.412C196.587 28.1858 197.14 27.8314 197.601 27.3727C198.504 26.2758 199.103 24.9609 199.338 23.5597Z" fill="black"/>
<path d="M226.613 29.9907H217.373L216.089 34.3387H207.779L217.679 8.00171H226.556L236.456 34.3387H227.934L226.613 29.9907ZM224.924 24.2957L222.017 14.8287L219.14 24.2957H224.924Z" fill="black"/>
<path d="M255.231 29.9907H245.991L244.707 34.3387H236.398L246.298 8.00171H255.175L265.075 34.3387H256.553L255.231 29.9907ZM253.542 24.2957L250.635 14.8287L247.759 24.2957H253.542Z" fill="black"/>
<path d="M266.24 25.6257L273.983 25.1407C274.067 26.1718 274.42 27.1628 275.007 28.0147C275.435 28.548 275.985 28.9713 276.61 29.2496C277.235 29.5278 277.917 29.653 278.6 29.6147C279.565 29.6776 280.519 29.3872 281.286 28.7977C281.575 28.5718 281.81 28.2838 281.974 27.955C282.137 27.6261 282.224 27.2648 282.229 26.8977C282.222 26.545 282.137 26.1982 281.982 25.8815C281.826 25.5649 281.603 25.2861 281.329 25.0647C280.065 24.2619 278.644 23.7411 277.161 23.5377C273.592 22.7377 271.047 21.671 269.526 20.3377C268.785 19.7173 268.194 18.938 267.796 18.0577C267.397 17.1774 267.203 16.2186 267.226 15.2527C267.23 13.8858 267.639 12.5508 268.402 11.4167C269.275 10.141 270.506 9.15299 271.941 8.5777C274.009 7.80406 276.212 7.45282 278.418 7.54471C281.783 7.54471 284.35 8.17036 286.118 9.42169C287.042 10.1322 287.802 11.0337 288.346 12.0647C288.89 13.0956 289.206 14.2318 289.271 15.3957L281.599 15.8447C281.497 14.8556 281.04 13.9369 280.314 13.2577C279.537 12.6796 278.581 12.3932 277.614 12.4487C276.853 12.3925 276.096 12.6048 275.476 13.0487C275.252 13.2214 275.071 13.4432 274.946 13.697C274.822 13.9509 274.757 14.23 274.758 14.5127C274.765 14.7337 274.822 14.9503 274.925 15.1462C275.027 15.342 275.173 15.5121 275.351 15.6437C276.179 16.1638 277.111 16.4953 278.081 16.6147C280.711 17.0882 283.277 17.8689 285.725 18.9407C287.097 19.5779 288.262 20.5898 289.085 21.8597C289.79 23.0371 290.154 24.3874 290.136 25.7597C290.144 27.4213 289.657 29.0477 288.736 30.4307C287.779 31.8747 286.416 33.0031 284.819 33.6737C282.802 34.4707 280.644 34.8452 278.477 34.7737C273.998 34.7737 270.896 33.9114 269.171 32.1867C267.43 30.4277 266.389 28.0958 266.24 25.6257Z" fill="black"/>
<path d="M294.554 8.00171H302.71V34.3387H294.554V8.00171Z" fill="black"/>
</svg>
